# xmcd
#
# Track frame offsets:
# 150
# 13772
# 27403
# 40349
# 54313
# 66445
# 80255
# 91982
# 105176
# 116315
# 128341
# 141525
# 155595
# 168807
# 183049
# 195064
# 208442
# 219486
#
# Disc length: 3085 seconds
#
#
# Revision: 0
# Processed by: cddbd v1.5.2PL0 Copyright (c) Steve Scherf et al.
# Submitted via: FreeRIP 2.96 
#
DISCID=e80c0b12
DTITLE=Big Joe Turner - Rocks in my Bed
DYEAR=1900
DGENRE=Blues
TTITLE0=S K Blues Pt 1
TTITLE1=Johnson and Turner Blues
TTITLE2=Howlin Winds
TTITLE3=Low Down Dog
TTITLE4=I Got My Discharge Papers
TTITLE5=Ms. Brown Blues
TTITLE6=I Got Love for Sale
TTITLE7=Sunday Morning Blues
TTITLE8=Mad Blues
TTITLE9=Playboy Blues
TTITLE10=Miss Brown Blues
TTITLE11=I'm Still in the Dark
TTITLE12=Sally Zu-Zazz
TTITLE13=Milk and Butter Blues
TTITLE14=Rock of Gibralitar
TTITLE15=I'm in Sharp When I Hit the Coast
TTITLE16=Nobody in my Mind
TTITLE17=Rocks in my Bed
EXTD=Uploaded by Howie
EXTT0=
EXTT1=
EXTT2=
EXTT3=
EXTT4=
EXTT5=
EXTT6=
EXTT7=
EXTT8=
EXTT9=
EXTT10=
EXTT11=
EXTT12=
EXTT13=
EXTT14=
EXTT15=
EXTT16=
EXTT17=
PLAYORDER=
